<?xml version="1.0" encoding="UTF-8"?>
<!DOCTYPE svg PUBLIC "-//W3C//DTD SVG 1.1//EN" "http://www.w3.org/Graphics/SVG/1.1/DTD/svg11.dtd">
<!-- Creator: CorelDRAW X7 -->
<svg xmlns="http://www.w3.org/2000/svg" xml:space="preserve" width="91.44mm" height="91.44mm" version="1.1" style="shape-rendering:geometricPrecision; text-rendering:geometricPrecision; image-rendering:optimizeQuality; fill-rule:evenodd; clip-rule:evenodd"
viewBox="0 0 9144 9144"
 xmlns:xlink="http://www.w3.org/1999/xlink">
 <defs>
  <style type="text/css">
   <![CDATA[
    .fil0 {fill:#2676BB}
   ]]>
  </style>
 </defs>
 <g id="Camada_x0020_1">
  <metadata id="CorelCorpID_0Corel-Layer"/>
  <path class="fil0" d="M3953 5654l1417 -1418 0 247 -1367 1368c-25,-62 -43,-128 -50,-197zm-4 -527l1421 -1423 0 282 -1421 1422 0 -281zm0 -526l1421 -1422 0 275 -1421 1423 0 -276zm1421 978c0,391 -319,710 -710,710l0 0c-230,0 -434,-110 -564,-280l1274 -1276 0 846zm-710 2140c1177,0 2140,-963 2140,-2140l0 -2277 2005 -2006 -249 -1 -1756 1757 0 -247 1509 -1509 -250 -1 -1259 1260 0 -281 978 -978 -250 -1 -728 729 0 -275 453 -453 -250 -1 -203 204 0 -150 -1430 0 0 1580 -1421 1423 0 -3003 -1430 0 0 4230c0,65 4,130 9,194l-1890 1892 250 0 1672 -1674c15,75 33,149 55,220l-1452 1454 250 0 1269 -1271c27,66 57,129 91,191l-1079 1080 250 0 922 -923c32,49 66,98 103,144l-778 779 249 0 643 -643c392,428 954,697 1577,697z"/>
 </g>
</svg>
