<?xml version="1.0" encoding="UTF-8"?>
<!DOCTYPE svg PUBLIC "-//W3C//DTD SVG 1.1//EN" "http://www.w3.org/Graphics/SVG/1.1/DTD/svg11.dtd">
<!-- Creator: CorelDRAW X7 -->
<svg xmlns="http://www.w3.org/2000/svg" xml:space="preserve" width="254mm" height="91.4398mm" version="1.1" style="shape-rendering:geometricPrecision; text-rendering:geometricPrecision; image-rendering:optimizeQuality; fill-rule:evenodd; clip-rule:evenodd"
viewBox="0 0 25400 9144"
 xmlns:xlink="http://www.w3.org/1999/xlink">
 <defs>
  <style type="text/css">
   <![CDATA[
    .fil0 {fill:#2676BB}
   ]]>
  </style>
 </defs>
 <g id="Camada_x0020_1">
  <metadata id="CorelCorpID_0Corel-Layer"/>
  <polygon class="fil0" points="10019,3210 8951,3210 8951,6689 10019,6689 "/>
  <path class="fil0" d="M7580 4453l0 2236 1068 0 0 -2320c0,-1058 -1240,-1678 -2129,-885l0 -274 -1068 0 0 3479 1068 0 0 -2236c0,-292 238,-530 530,-530 292,0 531,238 531,530z"/>
  <path class="fil0" d="M3021 5146l1059 -1059 0 184 -1021 1022c-20,-46 -33,-96 -38,-147zm-3 -394l1062 -1062 0 210 -1062 1062 0 -210zm0 -392l1062 -1063 0 206 -1062 1062 0 -205zm1062 730c0,292 -239,531 -531,531l0 0c-172,0 -324,-83 -422,-210l953 -953 0 632zm-531 1599c879,0 1599,-720 1599,-1599l0 -1701 1498 -1499 -187 0 -1311 1313 0 -185 1127 -1128 -187 0 -940 941 0 -210 730 -731 -186 0 -544 544 0 -205 338 -339 -187 0 -151 152 0 -112 -1068 0 0 1181 -1062 1062 0 -2243 -1068 0 0 3160c0,49 2,97 7,145l-1412 1413 186 0 1249 -1250c11,56 25,111 42,164l-1085 1086 186 0 948 -949c21,49 43,97 68,143l-806 806 187 0 689 -689c24,37 50,73 77,108l-582 581 187 0 480 -480c293,319 713,521 1178,521z"/>
  <path class="fil0" d="M12966 3219l1024 0 -1323 3484 -1023 0 -1322 -3484 1026 0 810 2130 808 -2130zm1417 3488l0 -3484 1027 0 0 3484 -1027 0zm3193 -3566c493,0 909,184 1250,539 345,359 517,793 517,1304 0,111 -9,219 -30,323l-2475 0c166,368 426,553 782,553 276,0 502,-119 677,-355l778 450c-366,579 -867,869 -1499,869 -490,0 -906,-180 -1251,-539 -345,-360 -517,-793 -517,-1301 0,-511 172,-945 517,-1304 345,-359 761,-539 1251,-539zm-717 1468l1522 0c-171,-336 -426,-503 -761,-503 -335,0 -590,167 -761,503zm4565 2094l-887 0 -1305 -3484 1026 0 720 1932 603 -1609 941 0 602 1609 724 -1932 1027 0 -1305 3484 -888 0 -629 -1680 -629 1680z"/>
 </g>
</svg>
